<?xml version="1.0" encoding="utf-8"?>
<!-- Generator: Adobe Illustrator 24.1.0, SVG Export Plug-In . SVG Version: 6.00 Build 0)  -->
<svg version="1.1" id="Layer_1" xmlns="http://www.w3.org/2000/svg" xmlns:xlink="http://www.w3.org/1999/xlink" x="0px" y="0px"
	 viewBox="0 0 1280 800" style="enable-background:new 0 0 1280 800;" xml:space="preserve">
<style type="text/css">
	.st0{display:none;}
	.st1{fill:#E6E6E6;stroke:#B3B3B3;stroke-width:0.5;stroke-miterlimit:10;}
	.st2{fill:#8CC63F;}
	.st3{opacity:0.42;fill:url(#XMLID_19_);enable-background:new    ;}
	.st4{opacity:0.11;fill:#FFFFFF;enable-background:new    ;}
	.st5{opacity:5.000000e-02;fill:url(#XMLID_21_);enable-background:new    ;}
	.st6{opacity:0.26;fill:url(#XMLID_23_);enable-background:new    ;}
	.st7{opacity:0.68;fill:url(#XMLID_25_);enable-background:new    ;}
	.st8{opacity:0.31;fill:url(#XMLID_26_);enable-background:new    ;}
	.st9{fill:#FFFFFF;}
	.st10{opacity:0.25;fill:url(#XMLID_27_);enable-background:new    ;}
	.st11{fill:#759B3A;}
	.st12{display:inline;fill:url(#XMLID_28_);stroke:#739936;stroke-width:0.25;stroke-miterlimit:10;}
	.st13{display:inline;fill:url(#XMLID_29_);stroke:#739936;stroke-width:0.25;stroke-miterlimit:10;}
	.st14{fill:none;}
	.st15{fill:#84A813;}
	.st16{font-family:'ArialMT';}
	.st17{font-size:209.4203px;}
	.st18{letter-spacing:20;}
	.st19{fill:url(#XMLID_30_);stroke:#739936;stroke-width:0.25;stroke-miterlimit:10;}
	.st20{fill:url(#XMLID_31_);stroke:#739936;stroke-width:0.25;stroke-miterlimit:10;}
</style>
<g id="Layer_1_1_" class="st0">
	
		<image style="display:inline;overflow:visible;opacity:0.26;enable-background:new    ;" width="3000" height="1500" id="XMLID_2_" xlink:href="8690134CD7C5D9DD.jpeg"  transform="matrix(0.3455 0 0 0.3455 114.2317 130.0043)">
	</image>
</g>
<g id="Layer_2_1_">
	<path id="XMLID_3_" class="st1" d="M322.1,366.7c0,0-14.7,2.6-64.9,94S143.3,569,111.7,549.4s11.8-97.9,132.2-128.3
		c0,0,60.7-56.8,66.2-76.7C310.1,344.4,331.5,358.8,322.1,366.7z"/>
</g>
<g id="Layer_9">
	<path id="XMLID_16_" class="st2" d="M547.5,177.7c0-0.3,0-0.3,0-0.5c0-0.3,0-0.5,0-0.8c0-0.5,0-1.3-0.3-1.8
		c-2.6-23.8-19.1-30.6-19.1-30.6l0,0c-9.9-7.3-31.9-13.6-71.5,23.6l0,0c-16.2,12.6-35.6,29.8-57.3,53.9l0,0c0,0-0.5,0.8-1.8,1.8
		c-1.3,1.3-2.6,2.9-3.7,4.2c-15.2,17-57.6,64.9-69.6,80.6c0,0-15.2,19.9-14.9,38l0,0c0,0,0,0,0,0.3c0.3,6.3,2.4,12.3,7.6,17
		c4.2,5,10.2,8.4,18.8,5c6.8-2.6,11.8-8.9,15.7-16.5c1.6-2.4,3.4-5,5-7.9v0.5c25.4-37.4,102.4-85.1,102.4-85.1l0,0
		c53.4-31.4,79.3-53.7,87.2-73.6c0.8-1.8,1-4.2,1.3-6.3C547.5,179.3,547.5,178.5,547.5,177.7L547.5,177.7z"/>
</g>
<g id="Layer_4">
</g>
<g id="Layer_13">
	
		<linearGradient id="XMLID_19_" gradientUnits="userSpaceOnUse" x1="460.6076" y1="619.0945" x2="548.2848" y2="619.0945" gradientTransform="matrix(1 0 0 -1 0 800)">
		<stop  offset="0" style="stop-color:#8CC63F"/>
		<stop  offset="1" style="stop-color:#FFFFFF"/>
	</linearGradient>
	<path id="XMLID_9_" class="st3" d="M542.5,158.1c-10.7-17.5-24.3-20.7-34.6-19.9c-31.9-0.3-42.9,36.4-44.8,43.5
		c-0.3,0.8-0.5,1.6-1,2.1c-5.8,10.5,5,29.6,22.8,36.1l0,0c16.8,8.9,32.5,1,42.9-7.6c4.7-3.4,9.7-8.1,13.4-13.9v-0.3l0,0
		C548.6,187.6,552,173.5,542.5,158.1z"/>
</g>
<g id="Layer_10">
	<ellipse id="XMLID_4_" class="st4" cx="530.5" cy="176.6" rx="17" ry="25.7"/>
</g>
<g id="Layer_12">
	
		<linearGradient id="XMLID_21_" gradientUnits="userSpaceOnUse" x1="310.1454" y1="468.0904" x2="356.6748" y2="468.0904" gradientTransform="matrix(1 0 0 -1 0 800)">
		<stop  offset="0" style="stop-color:#8CC63F"/>
		<stop  offset="1" style="stop-color:#000000"/>
	</linearGradient>
	<path id="XMLID_11_" class="st5" d="M356.7,345c0,0-50,11.3-18.6-53.1c0,0-50.3,52.1-16,75.9C322.1,367.7,338.4,386.6,356.7,345z"
		/>
</g>
<g id="Layer_11">
	
		<linearGradient id="XMLID_23_" gradientUnits="userSpaceOnUse" x1="322.1204" y1="493.3188" x2="485.2065" y2="493.3188" gradientTransform="matrix(1 0 0 -1 0 800)">
		<stop  offset="0" style="stop-color:#8CC63F"/>
		<stop  offset="1" style="stop-color:#000000"/>
	</linearGradient>
	<path id="XMLID_10_" class="st6" d="M322.1,366.7c0,0,60.7-103.4,163.1-123.3c0,0-86.1,57.9-95.3,65.7s-32.2,33.8-35.9,39.3
		C350.7,354.1,339.4,378.7,322.1,366.7z"/>
</g>
<g id="Layer_3">
	
		<linearGradient id="XMLID_25_" gradientUnits="userSpaceOnUse" x1="111.653" y1="308.5198" x2="271.336" y2="308.5198" gradientTransform="matrix(1 0 0 -1 0 800)">
		<stop  offset="0" style="stop-color:#4D4D4D"/>
		<stop  offset="1" style="stop-color:#F2F2F2"/>
	</linearGradient>
	<path id="XMLID_5_" class="st7" d="M111.7,548.9c0,0,89.8-0.5,127.2-102.1c0,0,29.3-35.9,32.5-14.4
		C271.3,432.4,199.1,596,111.7,548.9z"/>
</g>
<g id="Layer_5">
	
		<linearGradient id="XMLID_26_" gradientUnits="userSpaceOnUse" x1="101.7992" y1="302.3392" x2="197.3396" y2="302.3392" gradientTransform="matrix(1 0 0 -1 0 800)">
		<stop  offset="0" style="stop-color:#4D4D4D"/>
		<stop  offset="1" style="stop-color:#F2F2F2"/>
	</linearGradient>
	<path id="XMLID_1_" class="st8" d="M133.9,545.5c0,0-30.6-22.8,34.8-77c0,0,19.6-14.4,27.2-18.1c7.3-3.7-15.7-8.6-34.6,4.7
		c-18.8,13.4-41.9,31.7-49,44.8c-7.1,13.1-19.4,35.1-1,49C111.4,548.9,124.7,548.1,133.9,545.5z"/>
</g>
<g id="Layer_6">
	<g id="XMLID_7_">
		<path id="XMLID_14_" class="st9" d="M133.9,545.5c0,0-0.3-0.3-1-0.8c-0.5-0.5-1.3-1.3-2.4-2.6c-0.5-0.5-1-1.3-1.3-2.1
			c-0.5-0.8-0.8-1.8-1.3-2.6c-0.3-1-0.8-2.1-1-3.1c-0.3-1-0.5-2.4-0.5-3.7c-0.3-1.3,0-2.6-0.3-4.2c0-0.8,0-1.6,0-2.1
			c0-0.8,0.3-1.6,0.3-2.1c0.3-1.6,0.5-3.1,1-4.5c0.5-1.6,1-3.1,1.6-4.7l0.5-1l0.5-1c0.3-0.8,0.8-1.6,1-2.4c0.8-1.6,1.6-3.1,2.4-4.5
			c1-1.3,1.8-2.9,2.9-4.2s1.8-2.9,3.1-4.2c2.4-2.6,4.5-5.2,6.8-7.9c2.4-2.4,5-4.7,7.3-7.1c2.4-2.4,5-4.2,7.1-6
			c2.4-1.8,4.5-3.7,6.5-5.2c4.2-2.9,7.9-5.2,10.2-7.1c2.6-1.6,3.9-2.6,3.9-2.6s-1.3,1-3.7,3.1c-2.4,1.8-5.8,4.7-9.7,7.9
			c-1.8,1.8-3.9,3.7-6.3,5.5c-1,1-2.1,2.1-3.4,3.1c-1,1-2.4,2.1-3.4,3.1c-2.4,2.4-4.7,4.7-7.1,7.1c-2.4,2.4-4.5,5.2-6.5,7.6
			c-1,1.3-2.1,2.6-3.1,4.2c-1,1.3-1.8,2.9-2.9,4.2c-1,1.3-1.6,2.9-2.4,4.2c-0.3,0.8-0.8,1.3-1,2.1l-0.5,1l0,0.5
			c-0.5,1.6-1,2.9-1.6,4.5c-0.5,1.3-0.8,2.9-1,4.2c-0.3,0.8-0.3,1.3-0.5,2.1c0,0.8,0,1.3-0.3,2.1c0,1.3-0.3,2.6,0,3.9
			c0.3,1.3,0.3,2.4,0.5,3.7c0.3,1,0.5,2.1,0.8,3.1c0.3,1,0.8,1.8,1,2.6c0.3,0.8,0.8,1.6,1,2.1c0.8,1.3,1.3,2.4,1.8,2.9
			C133.6,545.2,133.9,545.5,133.9,545.5z"/>
	</g>
</g>
<g id="Layer_7">
	
		<linearGradient id="XMLID_27_" gradientUnits="userSpaceOnUse" x1="282.2057" y1="413.2827" x2="320.838" y2="413.2827" gradientTransform="matrix(1 0 0 -1 0 800)">
		<stop  offset="0" style="stop-color:#4D4D4D"/>
		<stop  offset="1" style="stop-color:#B3B3B3"/>
	</linearGradient>
	<path id="XMLID_8_" class="st10" d="M311.9,355.7c0,0-30.1,46.3-29.8,62c0,0,28-44.8,38.7-50.8C320.8,366.7,313,358.1,311.9,355.7z
		"/>
</g>
<g id="Layer_14">
	<g id="XMLID_6_">
		<path id="XMLID_22_" class="st11" d="M309.8,349.2c0,0-0.3-1.6-0.3-4.2c0-2.6,0.5-6.8,2.1-11.8c1.6-5,3.9-10.7,7.6-17
			c3.7-6.3,8.4-12.8,14.1-19.4c6-6.5,12-13.9,18.8-21.5c6.5-7.6,13.6-15.7,20.7-23.8c7.1-8.4,14.9-16.5,22.8-25.1
			c7.9-8.4,16-17,24.1-25.4c4.2-4.2,8.1-8.4,12.3-12.6c4.5-3.9,8.9-7.6,13.1-11.3c8.9-7.3,17.3-14.9,25.9-22
			c8.6-6.8,18.1-12,27.7-15.2c4.7-1.6,9.7-2.4,14.7-1.8c4.7,0.3,9.2,1.8,13.1,4.2c1,0.5,1.8,1,2.9,1.8c0.8,0.5,1.8,1.3,2.6,1.8
			c1.6,1.3,3.1,2.6,4.7,4.2c2.9,2.9,5,6,6.8,9.2c3.4,6.3,4.5,12.6,4.5,17.8s-1.3,9.2-2.4,11.5c-0.5,1.3-1,2.1-1.3,2.9
			c-0.3,0.5-0.5,1-0.5,1s0.3-0.3,0.5-1c0.3-0.5,0.8-1.6,1.3-2.9c1-2.6,2.1-6.5,2.4-11.5c0-5.2-1-11.5-4.5-17.8
			c-1.8-3.1-3.9-6.3-6.8-9.2c-1.3-1.6-2.9-2.6-4.7-4.2c-0.8-0.5-1.8-1.3-2.6-1.8s-1.8-1.3-2.9-1.6c-3.7-2.4-8.1-3.9-12.8-4.2
			s-9.7,0.5-14.4,1.8c-9.7,2.9-18.8,8.4-27.5,15.2c-8.4,7.1-17,14.4-25.9,22c-4.5,3.7-8.9,7.6-13.1,11.3c-4.2,4.2-8.1,8.4-12.3,12.6
			c-8.1,8.4-16.2,17-24.1,25.4c-7.9,8.4-15.7,16.8-22.8,25.1c-7.3,8.4-14.1,16.2-20.9,23.8c-6.5,7.6-12.8,14.9-18.8,21.2
			c-5.8,6.5-10.5,13.1-14.1,19.4c-3.7,6-6,11.8-7.6,16.8c-1.6,5-2.1,8.9-2.1,11.8C309.6,347.6,309.8,349.2,309.8,349.2z"/>
	</g>
</g>
<g id="Layer_16">
	<g id="Layer_15">
	</g>
</g>
<g id="Layer_17" class="st0">
	
		<linearGradient id="XMLID_28_" gradientUnits="userSpaceOnUse" x1="351.7738" y1="382.5" x2="351.7738" y2="456.2617" gradientTransform="matrix(1 0 0 -1 0 800)">
		<stop  offset="0" style="stop-color:#6E9B27"/>
		<stop  offset="0.9946" style="stop-color:#97DD28"/>
	</linearGradient>
	<path id="XMLID_15_" class="st12" d="M332.9,416.4c0,0-18.6-47.7,39.2-72.6c0.6-0.2,1.2,0.1,1.3,0.7c0.7,8.2-1.3,53.8-39.2,73
		c0,0,17.8-24.5,16.9-35.2c-0.1-1.1-1.3-1.8-2.2-1.3C343.4,383.8,335.9,398.3,332.9,416.4z"/>
	
		<linearGradient id="XMLID_29_" gradientUnits="userSpaceOnUse" x1="312.9301" y1="874.7183" x2="312.9301" y2="974.3994" gradientTransform="matrix(0.2935 -0.4321 -0.3685 -0.2005 565.8083 730.1654)">
		<stop  offset="0" style="stop-color:#6E9B27"/>
		<stop  offset="0.9946" style="stop-color:#97DD28"/>
	</linearGradient>
	<path id="XMLID_12_" class="st13" d="M327.3,430.3c0,0-31.1-2.1-20.6-42.6c0.1-0.4,0.5-0.7,0.9-0.5c4.3,1.8,26.3,15.4,20.8,42.7
		c0,0-5.1-17-10.8-19.4c-0.6-0.2-1.4,0.3-1.5,1C315.2,415.4,319.5,423.7,327.3,430.3z"/>
</g>
<g id="Layer_18">
	<rect id="XMLID_18_" x="333.4" y="346.5" class="st14" width="1167.5" height="289.8"/>
	<text id="XMLID_17_" transform="matrix(1 0 0 1 333.3755 504.3135)" class="st15 st16 st17 st18">grubhub</text>
</g>
<g id="Layer_19">
	
		<linearGradient id="XMLID_30_" gradientUnits="userSpaceOnUse" x1="186.2377" y1="364.9852" x2="186.2377" y2="606.6039" gradientTransform="matrix(1 0 0 -1 0 800)">
		<stop  offset="0" style="stop-color:#6E9B27"/>
		<stop  offset="0.5968" style="stop-color:#7BB027"/>
		<stop  offset="0.9946" style="stop-color:#97DD28"/>
	</linearGradient>
	<path id="XMLID_20_" class="st19" d="M126.8,435c0,0-31.4-97.6,37.4-136.1s87.2-105.5,87.2-105.5s14.9,126.2-54.4,170.2
		c-62.8,39.8-62.6,71.5-62.6,71.5s-0.8-53.7,58.6-118.6C193.6,316.7,122.9,358.8,126.8,435z"/>
</g>
<g id="Layer_20">
	
		<linearGradient id="XMLID_31_" gradientUnits="userSpaceOnUse" x1="80.862" y1="398.7543" x2="126.9597" y2="398.7543" gradientTransform="matrix(1 0 0 -1 0 800)">
		<stop  offset="0" style="stop-color:#6E9B27"/>
		<stop  offset="0.5968" style="stop-color:#7BB027"/>
		<stop  offset="0.9946" style="stop-color:#97DD28"/>
	</linearGradient>
	<path id="XMLID_24_" class="st20" d="M121.6,446.5c0,0-40.6-63.6-6.3-102.1c0,0-84.6,79.8,11.8,113.6c0,0-36.1-12.6-30.4-37.7
		C96.7,420.4,97.3,440,121.6,446.5z"/>
</g>
</svg>
