<?xml version="1.0" encoding="utf-8"?>
<!-- Generator: Adobe Illustrator 23.1.1, SVG Export Plug-In . SVG Version: 6.00 Build 0)  -->
<svg version="1.1" xmlns="http://www.w3.org/2000/svg" xmlns:xlink="http://www.w3.org/1999/xlink" x="0px" y="0px"
	 viewBox="0 0 614.1 365.7" style="enable-background:new 0 0 614.1 365.7;" xml:space="preserve">
<style type="text/css">
	.st0{display:none;}
	.st1{fill:#008ED6;}
</style>
<g id="Layer_1">
	<g id="Layer_1_1_" class="st0">
		
			<image style="display:inline;overflow:visible;enable-background:new    ;" width="670" height="458" xlink:href="ACE7BB1B69095313.png"  transform="matrix(0.9978 0 0 0.9978 -11.2686 -25.4148)">
		</image>
	</g>
	<g>
		
			<image style="overflow:visible;opacity:0.4;" width="263" height="282" xlink:href="ACE7BB1B69095317.png"  transform="matrix(1 0 0 1 303 51.66)">
		</image>
		<g>
			<g>
				<path class="st1" d="M309.3,305.3l2.4-250.1l98.6,0.9c78.4,0.8,132.3,51.1,131.6,126.5S486.3,307,408,306.3L309.3,305.3z
					 M487.5,182.1c0.4-44.2-26.2-78.6-77.6-79.1l-45.4-0.4L363.1,259l45.4,0.4C457.9,259.9,487.1,224.5,487.5,182.1z"/>
			</g>
		</g>
	</g>
</g>
<g id="Layer_2">
	<g>
		
			<image style="overflow:visible;opacity:0.48;" width="249" height="282" xlink:href="ACE7BB1B69095309.png"  transform="matrix(1 0 0 1 77 50.66)">
		</image>
		<g>
			<path class="st1" d="M86.6,153c0,0,141.2,18.6,168.4,151.6l47.2,0.5l2.4-250l-42.4-0.4l-4.9,83.6l-1.7,74.1
				C255.7,212.3,214.8,135.5,86.6,153z"/>
		</g>
	</g>
	<g>
		
			<image style="overflow:visible;opacity:0.35;" width="210" height="282" xlink:href="ACE7BB1B6909530A.png"  transform="matrix(1 0 0 1 58 49.66)">
		</image>
		<g>
			<polygon class="st1" points="83.7,304.5 262.2,54.6 257.3,138.8 140.3,305 			"/>
		</g>
	</g>
	<rect x="256.6" y="62.1" class="st1" width="7" height="73.8"/>
</g>
</svg>
